<?xml version="1.0" encoding="UTF-8" standalone="no"?>
<svg
   version="1.1"
   id="Ebene_1"
   x="0px"
   y="0px"
   viewBox="0 0 800 200"
   xml:space="preserve"
   width="800"
   height="200"
   sodipodi:docname="project.svg"
   inkscape:version="1.1.2 (0a00cf5339, 2022-02-04, custom)"
   inkscape:export-filename="/data/projects/Coding/Hausgold/OSS/Docker/docker-neo4j/docs/assets/project.png"
   inkscape:export-xdpi="96"
   inkscape:export-ydpi="96"
   xmlns:inkscape="http://www.inkscape.org/namespaces/inkscape"
   xmlns:sodipodi="http://sodipodi.sourceforge.net/DTD/sodipodi-0.dtd"
   xmlns="http://www.w3.org/2000/svg"
   xmlns:svg="http://www.w3.org/2000/svg"
   xmlns:rdf="http://www.w3.org/1999/02/22-rdf-syntax-ns#"
   xmlns:cc="http://creativecommons.org/ns#"
   xmlns:dc="http://purl.org/dc/elements/1.1/"><sodipodi:namedview
   pagecolor="#ffffff"
   bordercolor="#666666"
   borderopacity="1"
   objecttolerance="10"
   gridtolerance="10"
   guidetolerance="10"
   inkscape:pageopacity="0"
   inkscape:pageshadow="2"
   inkscape:window-width="1724"
   inkscape:window-height="1031"
   id="namedview13"
   showgrid="false"
   inkscape:zoom="1.410678"
   inkscape:cx="315.45115"
   inkscape:cy="89.318753"
   inkscape:window-x="2112"
   inkscape:window-y="47"
   inkscape:window-maximized="0"
   inkscape:current-layer="Ebene_1"
   inkscape:pagecheckerboard="0" /><metadata
   id="metadata33"><rdf:RDF><cc:Work
       rdf:about=""><dc:format>image/svg+xml</dc:format><dc:type
         rdf:resource="http://purl.org/dc/dcmitype/StillImage" /><dc:title /></cc:Work></rdf:RDF></metadata><defs
   id="defs31">

<linearGradient
   id="XMLID_17_-9"
   gradientUnits="userSpaceOnUse"
   x1="174.0737"
   y1="215.5488"
   x2="132.27631"
   y2="141.7533"><stop
     offset="0"
     style="stop-color:#FB7655"
     id="stop3272-4" /><stop
     offset="0"
     style="stop-color:#FB7655"
     id="stop3274-5" /><stop
     offset="0.41"
     style="stop-color:#E42B1E"
     id="stop3276-1" /><stop
     offset="0.99"
     style="stop-color:#990000"
     id="stop3278-0" /><stop
     offset="1"
     style="stop-color:#990000"
     id="stop3280-3" /></linearGradient><linearGradient
   id="XMLID_18_-7"
   gradientUnits="userSpaceOnUse"
   x1="194.895"
   y1="153.5576"
   x2="141.0276"
   y2="117.4093"
   gradientTransform="translate(-1.0178258)"><stop
     offset="0"
     style="stop-color:#871101"
     id="stop3285-8" /><stop
     offset="0"
     style="stop-color:#871101"
     id="stop3287-8" /><stop
     offset="0.99"
     style="stop-color:#911209"
     id="stop3289-6" /><stop
     offset="1"
     style="stop-color:#911209"
     id="stop3291-0" /></linearGradient><linearGradient
   id="XMLID_19_-4"
   gradientUnits="userSpaceOnUse"
   x1="151.79539"
   y1="217.7852"
   x2="97.929703"
   y2="181.638"
   gradientTransform="translate(-1.0178258)"><stop
     offset="0"
     style="stop-color:#871101"
     id="stop3296-6" /><stop
     offset="0"
     style="stop-color:#871101"
     id="stop3298-7" /><stop
     offset="0.99"
     style="stop-color:#911209"
     id="stop3300-6" /><stop
     offset="1"
     style="stop-color:#911209"
     id="stop3302-0" /></linearGradient><linearGradient
   id="XMLID_20_-9"
   gradientUnits="userSpaceOnUse"
   x1="38.696301"
   y1="127.3906"
   x2="47.046902"
   y2="181.66141"
   gradientTransform="translate(-1.0178258)"><stop
     offset="0"
     style="stop-color:#FFFFFF"
     id="stop3307-7" /><stop
     offset="0"
     style="stop-color:#FFFFFF"
     id="stop3309-5" /><stop
     offset="0.23"
     style="stop-color:#E57252"
     id="stop3311-9" /><stop
     offset="0.46"
     style="stop-color:#DE3B20"
     id="stop3313-7" /><stop
     offset="0.99"
     style="stop-color:#A60003"
     id="stop3315-8" /><stop
     offset="1"
     style="stop-color:#A60003"
     id="stop3317-5" /></linearGradient><linearGradient
   id="XMLID_21_-3"
   gradientUnits="userSpaceOnUse"
   x1="96.132797"
   y1="76.715302"
   x2="99.209602"
   y2="132.1021"
   gradientTransform="translate(-1.0178258)"><stop
     offset="0"
     style="stop-color:#FFFFFF"
     id="stop3322-3" /><stop
     offset="0"
     style="stop-color:#FFFFFF"
     id="stop3324-8" /><stop
     offset="0.23"
     style="stop-color:#E4714E"
     id="stop3326-3" /><stop
     offset="0.56"
     style="stop-color:#BE1A0D"
     id="stop3328-7" /><stop
     offset="0.99"
     style="stop-color:#A80D00"
     id="stop3330-9" /><stop
     offset="1"
     style="stop-color:#A80D00"
     id="stop3332-3" /></linearGradient><linearGradient
   id="XMLID_22_-7"
   gradientUnits="userSpaceOnUse"
   x1="147.103"
   y1="25.521"
   x2="156.3141"
   y2="65.216202"
   gradientTransform="translate(-1.0178258)"><stop
     offset="0"
     style="stop-color:#FFFFFF"
     id="stop3337-8" /><stop
     offset="0"
     style="stop-color:#FFFFFF"
     id="stop3339-7" /><stop
     offset="0.18"
     style="stop-color:#E46342"
     id="stop3341-4" /><stop
     offset="0.4"
     style="stop-color:#C82410"
     id="stop3343-1" /><stop
     offset="0.99"
     style="stop-color:#A80D00"
     id="stop3345-9" /><stop
     offset="1"
     style="stop-color:#A80D00"
     id="stop3347-0" /></linearGradient><linearGradient
   id="XMLID_23_-9"
   gradientUnits="userSpaceOnUse"
   x1="118.9761"
   y1="11.5415"
   x2="158.66859"
   y2="-8.3048"
   gradientTransform="translate(-1.0178258)"><stop
     offset="0"
     style="stop-color:#FFFFFF"
     id="stop3352-8" /><stop
     offset="0"
     style="stop-color:#FFFFFF"
     id="stop3354-8" /><stop
     offset="0.54"
     style="stop-color:#C81F11"
     id="stop3356-5" /><stop
     offset="0.99"
     style="stop-color:#BF0905"
     id="stop3358-8" /><stop
     offset="1"
     style="stop-color:#BF0905"
     id="stop3360-4" /></linearGradient><linearGradient
   id="XMLID_24_-3"
   gradientUnits="userSpaceOnUse"
   x1="3.9033"
   y1="113.5547"
   x2="7.1701999"
   y2="146.2628"
   gradientTransform="translate(-1.0178258)"><stop
     offset="0"
     style="stop-color:#FFFFFF"
     id="stop3365-7" /><stop
     offset="0"
     style="stop-color:#FFFFFF"
     id="stop3367-1" /><stop
     offset="0.31"
     style="stop-color:#DE4024"
     id="stop3369-3" /><stop
     offset="0.99"
     style="stop-color:#BF190B"
     id="stop3371-8" /><stop
     offset="1"
     style="stop-color:#BF190B"
     id="stop3373-0" /></linearGradient><linearGradient
   id="XMLID_25_-9"
   gradientUnits="userSpaceOnUse"
   x1="-18.5557"
   y1="155.10451"
   x2="135.0152"
   y2="-2.8092999"
   gradientTransform="translate(-209.95907,-12.919516)"><stop
     offset="0"
     style="stop-color:#BD0012"
     id="stop3380-7" /><stop
     offset="0"
     style="stop-color:#BD0012"
     id="stop3382-9" /><stop
     offset="0.07"
     style="stop-color:#FFFFFF"
     id="stop3384-9" /><stop
     offset="0.17"
     style="stop-color:#FFFFFF"
     id="stop3386-3" /><stop
     offset="0.27"
     style="stop-color:#C82F1C"
     id="stop3388-2" /><stop
     offset="0.33"
     style="stop-color:#820C01"
     id="stop3390-4" /><stop
     offset="0.46"
     style="stop-color:#A31601"
     id="stop3392-3" /><stop
     offset="0.72"
     style="stop-color:#B31301"
     id="stop3394-7" /><stop
     offset="0.99"
     style="stop-color:#E82609"
     id="stop3396-1" /><stop
     offset="1"
     style="stop-color:#E82609"
     id="stop3398-2" /></linearGradient><linearGradient
   id="XMLID_26_-2"
   gradientUnits="userSpaceOnUse"
   x1="99.074699"
   y1="171.0332"
   x2="52.817699"
   y2="159.61659"
   gradientTransform="translate(-209.95907,-12.919516)"><stop
     offset="0"
     style="stop-color:#8C0C01"
     id="stop3403-0" /><stop
     offset="0"
     style="stop-color:#8C0C01"
     id="stop3405-2" /><stop
     offset="0.54"
     style="stop-color:#990C00"
     id="stop3407-1" /><stop
     offset="0.99"
     style="stop-color:#A80D0E"
     id="stop3409-7" /><stop
     offset="1"
     style="stop-color:#A80D0E"
     id="stop3411-5" /></linearGradient><linearGradient
   id="XMLID_27_-1"
   gradientUnits="userSpaceOnUse"
   x1="178.52589"
   y1="115.5146"
   x2="137.43269"
   y2="78.683998"
   gradientTransform="translate(-209.95907,-12.919516)"><stop
     offset="0"
     style="stop-color:#7E110B"
     id="stop3416-7" /><stop
     offset="0"
     style="stop-color:#7E110B"
     id="stop3418-4" /><stop
     offset="0.99"
     style="stop-color:#9E0C00"
     id="stop3420-1" /><stop
     offset="1"
     style="stop-color:#9E0C00"
     id="stop3422-7" /></linearGradient><linearGradient
   id="XMLID_28_-1"
   gradientUnits="userSpaceOnUse"
   x1="193.6235"
   y1="47.937"
   x2="173.15421"
   y2="26.053801"
   gradientTransform="translate(-209.95907,-12.919516)"><stop
     offset="0"
     style="stop-color:#79130D"
     id="stop3427-1" /><stop
     offset="0"
     style="stop-color:#79130D"
     id="stop3429-1" /><stop
     offset="0.99"
     style="stop-color:#9E120B"
     id="stop3431-7" /><stop
     offset="1"
     style="stop-color:#9E120B"
     id="stop3433-0" /></linearGradient><radialGradient
   id="XMLID_29_-4"
   cx="143.8315"
   cy="79.388199"
   r="50.357601"
   gradientUnits="userSpaceOnUse"
   gradientTransform="translate(-209.95907,-12.919516)"><stop
     offset="0"
     style="stop-color:#A80D00"
     id="stop3440-0" /><stop
     offset="0"
     style="stop-color:#A80D00"
     id="stop3442-8" /><stop
     offset="0.99"
     style="stop-color:#7E0E08"
     id="stop3444-5" /><stop
     offset="1"
     style="stop-color:#7E0E08"
     id="stop3446-1" /></radialGradient><radialGradient
   id="XMLID_30_-6"
   cx="74.0923"
   cy="145.75101"
   r="66.943703"
   gradientUnits="userSpaceOnUse"
   gradientTransform="translate(-209.95907,-12.919516)"><stop
     offset="0"
     style="stop-color:#A30C00"
     id="stop3451-6" /><stop
     offset="0"
     style="stop-color:#A30C00"
     id="stop3453-2" /><stop
     offset="0.99"
     style="stop-color:#800E08"
     id="stop3455-1" /><stop
     offset="1"
     style="stop-color:#800E08"
     id="stop3457-9" /></radialGradient><linearGradient
   id="XMLID_31_-6"
   gradientUnits="userSpaceOnUse"
   x1="26.669901"
   y1="197.33591"
   x2="9.9886999"
   y2="140.742"
   gradientTransform="translate(-209.95907,-12.919516)"><stop
     offset="0"
     style="stop-color:#8B2114"
     id="stop3462-4" /><stop
     offset="0"
     style="stop-color:#8B2114"
     id="stop3464-8" /><stop
     offset="0.43"
     style="stop-color:#9E100A"
     id="stop3466-0" /><stop
     offset="0.99"
     style="stop-color:#B3100C"
     id="stop3468-8" /><stop
     offset="1"
     style="stop-color:#B3100C"
     id="stop3470-1" /></linearGradient><linearGradient
   id="XMLID_32_-0"
   gradientUnits="userSpaceOnUse"
   x1="154.6411"
   y1="9.7979002"
   x2="192.039"
   y2="26.305901"
   gradientTransform="translate(-209.95907,-12.919516)"><stop
     offset="0"
     style="stop-color:#B31000"
     id="stop3475-2" /><stop
     offset="0"
     style="stop-color:#B31000"
     id="stop3477-2" /><stop
     offset="0.44"
     style="stop-color:#910F08"
     id="stop3479-9" /><stop
     offset="0.99"
     style="stop-color:#791C12"
     id="stop3481-7" /><stop
     offset="1"
     style="stop-color:#791C12"
     id="stop3483-5" /></linearGradient></defs>
<style
   type="text/css"
   id="style2">
    .st0{fill-rule:evenodd;clip-rule:evenodd;fill:#E73E11;}
    .st1{fill-rule:evenodd;clip-rule:evenodd;fill:#0371B9;}
    .st2{fill:#132E48;}
    .st3{font-family:'OpenSans-Bold';}
    .st4{font-size:29.5168px;}
    .st5{fill-rule:evenodd;clip-rule:evenodd;fill:none;}
    .st6{opacity:0.5;fill:#132E48;}
    .st7{font-family:'OpenSans';}
    .st8{font-size:12px;}
</style>
<text
   class="st2 st3 st4"
   id="text10"
   style="font-style:normal;font-variant:normal;font-weight:bold;font-stretch:normal;font-size:29.5173px;font-family:'Open Sans', sans-serif;-inkscape-font-specification:'OpenSans-Bold, Bold';font-variant-ligatures:normal;font-variant-caps:normal;font-variant-numeric:normal;font-feature-settings:normal;text-align:start;writing-mode:lr-tb;text-anchor:start;fill:#132e48"
   x="192.43155"
   y="107.939">hausgold/neo4j</text>
<rect
   x="194.23985"
   y="119.60001"
   class="st5"
   width="314.5"
   height="24"
   id="rect12"
   style="clip-rule:evenodd;fill:none;fill-rule:evenodd" /><text
   class="st6 st7 st8"
   id="text14"
   style="font-style:normal;font-variant:normal;font-weight:normal;font-stretch:normal;font-size:12px;font-family:'Open Sans', sans-serif;-inkscape-font-specification:'Open Sans, sans-serif, Normal';font-variant-ligatures:normal;font-variant-caps:normal;font-variant-numeric:normal;font-feature-settings:normal;text-align:start;writing-mode:lr-tb;text-anchor:start;opacity:0.5;fill:#132e48"
   x="194.21715"
   y="128.75729">mDNS enabled official/neo4j</text>

<g
   id="g161"
   transform="matrix(1.2374712,0,0,1.2374712,102.44011,125.4393)"
   style="stroke-width:0.8081"><path
     d="m -34.06,-31.002491 c -5.92,0 -9.9,3.41 -9.9,10.12 v 4.09 a 5.51,5.51 0 0 1 1.93,-0.45 3.76,3.76 0 0 1 1.94,0.45 v -4.09 c 0,-4.32 2.39,-6.6 6,-6.6 3.61,0 6,2.28 6,6.6 v 10.46 h 3.87 v -10.46 c 0,-6.71 -4,-10.12 -9.89,-10.12"
     id="path6"
     style="stroke-width:0.8081" /><path
     d="m -22.12,-20.432491 c 0,-6.14 4.43,-10.57 10.8,-10.57 6.37,0 10.69,4.46 10.69,10.57 v 1.37 h -17.4 a 6.45,6.45 0 0 0 6.71,5.57 c 2.62,0 4.44,-0.79 5.58,-2.5 h 4.24 c -1.59,3.75 -5.23,6.14 -9.89,6.14 -6.26,0 -10.69,-4.43 -10.69,-10.58 m 17.51,-2 a 6.52,6.52 0 0 0 -6.71,-5 6.39,6.39 0 0 0 -6.59,5 z"
     id="path8"
     style="stroke-width:0.8081" /><path
     d="m 1.5,-20.432491 c 0,-6.11 4.47,-10.57 10.84,-10.57 a 10.4,10.4 0 0 1 10.81,10.57 c 0,6.15 -4.44,10.58 -10.81,10.58 -6.37,0 -10.84,-4.43 -10.84,-10.58 m 17.62,0 a 6.56,6.56 0 0 0 -6.93,-6.93 6.68,6.68 0 0 0 -6.94,6.93 6.57,6.57 0 0 0 6.94,6.94 c 4.21,0.12 6.93,-2.84 6.93,-6.94"
     id="path10"
     style="stroke-width:0.8081" /><path
     d="m 45.21,-6.322491 h 0.46 c 2.5,0 3.41,-1.14 3.41,-4 v -19.32 h 3.87 v 19.1 c 0,5 -1.94,7.51 -6.94,7.51 h -0.8 z"
     id="path12"
     style="stroke-width:0.8081" /><path
     d="m 43.28,-8.482491 h -3.87 v -4.78 h -9.78 a 4.82,4.82 0 0 1 -4.44,-2.5 4.19,4.19 0 0 1 0.57,-4.55 l 8.74,-11.49 a 4.8,4.8 0 0 1 5.48,-1.74 4.75,4.75 0 0 1 3.3,4.55 v 12.32 h 2.27 v 3.41 h -2.27 z m -14.33,-9.67 a 0.83,0.83 0 0 0 -0.23,0.57 1,1 0 0 0 1,1 h 9.67 v -12.38 c 0,-0.68 -0.45,-0.91 -0.68,-0.91 h -0.34 a 1,1 0 0 0 -0.8,0.46 z"
     id="path14"
     style="stroke-width:0.8081" /><path
     class="cls-1"
     d="m 51.01,-38.542491 a 3.3,3.3 0 1 0 3.3,3.3 3.3,3.3 0 0 0 -3.3,-3.3"
     id="path16"
     style="fill:#018bff;stroke-width:0.8081" /><path
     class="cls-1"
     d="m -42.25,-15.312491 a 2.71,2.71 0 0 0 -1.94,0.68 l -3.64,-2.38 a 2.41,2.41 0 0 0 0.12,-0.91 3.3,3.3 0 1 0 -3.3,3.29 2.65,2.65 0 0 0 1.93,-0.68 l 3.64,2.5 a 2.61,2.61 0 0 0 -0.11,0.91 2.56,2.56 0 0 0 0.11,0.91 l -3.64,2.51 a 3.07,3.07 0 0 0 -1.93,-0.69 3.3,3.3 0 1 0 3.3,3.3 2.38,2.38 0 0 0 -0.12,-0.91 l 3.64,-2.5 a 3.06,3.06 0 0 0 1.94,0.68 3.29,3.29 0 0 0 3.29,-3.3 3.39,3.39 0 0 0 -3.29,-3.41"
     id="path18"
     style="fill:#018bff;stroke-width:0.8081" /></g></svg>
